<?xml version="1.0" encoding="UTF-8"?><svg id="Layer_1" xmlns="http://www.w3.org/2000/svg" viewBox="0 0 205.51 104.13"><defs><style>.cls-1{fill:#f7f9fa;}.cls-2{fill:#f57e25;}.cls-3{fill:#f68635;}.cls-4{fill:#f47c24;}.cls-5{fill:#fcfdf9;}.cls-6{fill:#f68734;}.cls-7{fill:#f68939;}.cls-8{fill:#fff;}.cls-9{fill:#f68839;}.cls-10{fill:#b3b5b6;}.cls-11{fill:#f58639;}.cls-12{fill:#184879;}.cls-13{fill:#174878;}.cls-14{fill:#174978;}.cls-15{fill:#b3b4b6;}.cls-16{fill:#184979;}.cls-17{fill:#f47e24;}.cls-18{fill:#feffff;}</style></defs><g id="Generative_Object"><path class="cls-17" d="M158.76,44.4c-3.64,1.57-6.31,3.79-9.75,6l4.5-20.93-75.17-.2c-2.28,0-3.71-2.38-3.82-3.85-.15-2.04,1.3-4.35,3.79-4.36l80.27-.11c1.72,0,2.86.81,3.55,1.61,1.05,1.21,1.07,2.56.7,4.15l-4.07,17.68Z"/><path class="cls-16" d="M29.12,72.5l-11.67-.31-.05-6.44,20.33-.09c1.34,11.35-8.09,21.05-18.99,20.86-11.35-.19-19.84-9.87-18.63-21.12s11.59-18.66,23.08-16.35c6.29,1.26,11.41,5.36,13.32,11.64-2.94.46-5.61-.02-8.72.13-2.93-3.9-7.68-5.51-12.22-4.03s-7.35,5.75-7.29,10.71c.07,5.37,3.29,9.82,8.29,11.03,4.78,1.16,10.33-.7,12.53-6.03Z"/><path class="cls-15" d="M142.49,95.16c2.79,0,4.19,1.94,4.43,3.88s-1.19,4.37-3.66,4.37l-54.38.03c-8.01,0-12.35-6.27-13.33-13.63,2.85-.48,5.26-.26,8.26-.34.32,3.71,2.49,5.73,6.11,5.73l52.56-.04Z"/><path class="cls-10" d="M75.23,54.12c-2.89.41-5.41-.16-8.25.68l-12-44.32-13.71-2.23c-2.19-.36-3.09-2.75-2.63-4.94.33-1.55,2.06-3.64,4.27-3.26l14.67,2.51c2.63.45,4.43,2.03,5.1,4.56l12.55,47Z"/><path class="cls-4" d="M152.66,64.95c3.03,6.02,1.86,13.83-3.64,18.35-5.78,4.77-14.59,4.32-19.96-.99-4.78-4.72-5.32-12.24-1.9-17.87,2.33,2.11,3.92,4.41,5.81,6.73-.67,4.13,2.07,7.48,5.86,7.94s7.35-2.58,7.72-6.7l6.11-7.47Z"/><path class="cls-2" d="M139.19,75.43c-3.96-7.45-8.87-13.62-14.86-19.41,5.95,1.08,10.91,4.23,15.29,8.41,7.97-9.38,19.25-17.06,30.97-21.07-10.44,8.24-21.34,18.17-28.75,29.96-.83.77-.96,1.71-2.65,2.12Z"/><path class="cls-12" d="M166.15,85.48c-2.5.58-4.94.26-7.74.15l-.05-26.43c2.62-.29,4.92-.15,7.46-.05.34,1.18-.01,2.01.51,3.09,1.95-2.39,4.43-4.1,7.76-3.79.15,2.58.25,4.96-.03,7.66-3.6-.43-7.33.83-7.75,4.57-.54,4.82-.05,9.38-.17,14.81Z"/><path class="cls-16" d="M49.29,85.47c-2.6.56-4.99.3-7.79.17l-.02-26.58h7.38c.42,1.04-.15,1.97.48,3.14,1.94-2.37,4.45-3.96,7.89-3.75.25,2.58.3,5.11-.03,7.78-3.89-.71-7.81,1-7.83,4.95l-.08,14.28Z"/><path class="cls-6" d="M164.51,103.88c-2.69.72-5.53-.12-6.76-2.44-.37-.71-.3-1.48.14-1.62,1.99-.64,1.21,2.17,4.27,2.53,1.4.16,3.39-.28,3.55-2.05.31-3.55-6.42-1.83-7.77-5.27-.67-1.69-.27-3.56,1.37-4.67,2.4-1.64,5.92-1.03,7.48,1.23.36.52.32.99.24,1.34-.08.33-.75.47-1.15.43s-.9-2.32-3.77-2.19c-.98.04-2.63.76-2.47,2.34.34,3.3,7.68,1.5,7.93,6.06.1,1.87-.64,3.68-3.05,4.33Z"/><path class="cls-3" d="M172.91,101.71c.24.64,1.36.32,1.63.45s.82.68.38,1.23c-.8,1.01-3.74.54-3.88-.96l-.62-6.9c-.54-.16-1.45-.2-1.47-.77-.02-.61.23-.95.97-1.03,1.32-.14.49-1.85.96-2.51.24-.33.8-.37,1.29-.17.99.39-.3,2.58,1.29,2.63.61.02,1.07.03,1.27.32.3.43.1.78.04,1.06-.1.55-1.68.11-1.83.46-.65,1.56-.72,4.4-.04,6.19Z"/><path class="cls-11" d="M194,95.4c-5.64,1.4-1.2,8.13-3.85,8.54-1.71.27-.93-8.58-.65-10.36,3.29,1.91,3.51-1.03,4.91.35.26.26.21,1.31-.41,1.46Z"/><path class="cls-14" d="M114.78,85.21c-4.77,2.31-10.15,1.51-13.5-2.22l-.55,2.8c-2.48-.05-4.68.17-7.44-.17l-.04-36.48c2.65-.32,5.02-.16,7.66-.1l.38,12.58c4.45-4.26,10.97-4.29,15.73-.62,3.96,3.05,5.8,7.91,5.24,13.01-.47,4.33-3.01,9.02-7.49,11.19Z"/><path class="cls-18" d="M114.36,72c.27,4.47-2.95,7.46-6.76,7.48-4.08.02-6.98-3.44-6.62-7.67.31-3.66,3.03-6.49,6.6-6.44s6.52,2.5,6.77,6.62Z"/><path class="cls-16" d="M204.71,85.64c-3,.22-5.03.29-7.49-.04-.56-.32.1-1.56-.54-2.62-4.85,5.4-13.97,4.42-18.31-1.85-3.36-4.87-3.58-11.25-.85-16.41,1.83-3.47,5.28-5.57,8.55-6.19,4.08-.78,7.63.31,10.57,2.91.45-.87-.02-2.31.64-2.39,2.55-.31,4.89-.22,7.43,0v26.59Z"/><path class="cls-8" d="M196.97,72.56c-.05,4.16-3.14,6.96-6.78,6.93s-6.48-2.78-6.69-6.65c-.22-4.06,2.47-7.26,6.18-7.46,3.93-.21,7.35,2.59,7.3,7.18Z"/><path class="cls-13" d="M87.79,85.43c-2.55.6-4.9.17-7.5.24-.35-1.17-.1-1.92-.42-2.65-4.5,4.59-11.5,4.76-16.48.29-6.13-5.51-6.17-15.7-.41-21.39,4.79-4.73,12.11-4.87,16.65-.33.66-.93.22-1.77.58-2.61l7.54.09.03,26.35Z"/><path class="cls-18" d="M80.07,72.14c.19,4.17-2.79,7.21-6.38,7.38-4.08.19-7.21-3.05-7.08-7.23s2.91-6.88,6.58-6.9,6.68,2.61,6.87,6.75Z"/><path class="cls-7" d="M198.34,99.73c-1.52.71.71,2.36,1.62,2.56,2.99.67,2.31-1.68,4.83-1.4.43.05.42.68.08,1.18-1.44,2.13-4.15,2.4-6.28,1.55-2.27-.91-3.34-3.34-2.93-5.98.47-3.03,3.08-4.62,6.06-4.03,2.41.48,4.31,2.91,3.66,5.79l-7.04.33Z"/><path class="cls-1" d="M203.54,97.6c-1.95.44-3.82.4-5.78.04-.04-1.56,1.28-2.24,2.45-2.45,1.41-.25,2.83.54,3.33,2.41Z"/><path class="cls-9" d="M177.7,102.23c-1.85-2.28-1.5-5.5.39-7.37,2.12-2.1,5.47-1.55,7.26.24,2.03,2.03,1.9,5.3.07,7.34s-5.58,2.43-7.71-.21Z"/><path class="cls-5" d="M181.68,102.29c-2.19.02-3.17-1.88-3.23-3.31-.07-1.61.99-3.63,2.94-3.76,2.06-.13,3.41,1.67,3.53,3.25.14,1.69-.88,3.8-3.25,3.82Z"/></g></svg>