<?xml version="1.0" encoding="UTF-8"?><svg id="Layer_1" xmlns="http://www.w3.org/2000/svg" viewBox="0 0 275.6 273.8"><defs><style>.cls-1{fill:#b2b3b2;}.cls-2{fill:#f7f9fa;}.cls-3{fill:#f57e25;}.cls-4{fill:#fdfeff;}.cls-5{fill:#f68635;}.cls-6{fill:#f47c24;}.cls-7{fill:#fcfdf9;}.cls-8{fill:#f68734;}.cls-9{fill:#134473;}.cls-10{fill:#f7f8f7;}.cls-11{fill:#134472;}.cls-12{fill:#15426c;}.cls-13{fill:#f68939;}.cls-14{fill:#174572;}.cls-15{fill:#fff;}.cls-16{fill:#f68839;}.cls-17{fill:#b3b5b6;}.cls-18{fill:#f58639;}.cls-19{fill:#164675;}.cls-20{fill:#184879;}.cls-21{fill:#1d3a6b;}.cls-22{fill:#114775;}.cls-23{fill:#174878;}.cls-24{fill:#164975;}.cls-25{fill:#154774;}.cls-26{fill:#174978;}.cls-27{fill:#144475;}.cls-28{fill:#b3b4b6;}.cls-29{fill:#fbfdfe;}.cls-30{fill:#134370;}.cls-31{fill:#184979;}.cls-32{fill:#124470;}.cls-33{fill:#174872;}.cls-34{fill:#134575;}.cls-35{fill:#144473;}.cls-36{fill:#fdfcfb;}.cls-37{fill:#f9fbf9;}.cls-38{fill:#144675;}.cls-39{fill:#184878;}.cls-40{fill:#193f6f;}.cls-41{fill:#173e6b;}.cls-42{fill:#154775;}.cls-43{fill:#fefffe;}.cls-44{fill:#f47e24;}.cls-45{fill:#13426f;}.cls-46{fill:#feffff;}.cls-47{fill:#174474;}</style></defs><g id="Generative_Object"><path class="cls-39" d="M224.77,243.02c-63.42,51.26-156.78,36.7-201.82-30.44C-15.41,155.39-4.78,77.95,48.13,33.11,85.79,1.19,137.14-8.85,184.92,8.26c41.33,14.81,75.14,50.49,86.43,94.88,13.19,51.83-4.86,106.15-46.58,139.88Z"/><path class="cls-15" d="M164.58,261.52c-47.65,9.94-96.05-7.41-126.6-44.67C-.08,170.41.04,102.77,38.46,56.44,66.51,22.62,109.83,5.08,153.76,10.55c29.02,3.61,55.73,17.17,75.94,37.75,51.68,52.62,47.52,137.44-8.2,184.99-16.05,13.7-35.38,23.75-56.92,28.24Z"/><path class="cls-44" d="M193.02,109.06c-3.64,1.57-6.31,3.79-9.75,6l4.5-20.93-75.17-.2c-2.28,0-3.71-2.38-3.82-3.85-.15-2.04,1.3-4.35,3.79-4.36l80.27-.11c1.72,0,2.86.81,3.55,1.61,1.05,1.21,1.07,2.56.7,4.15l-4.07,17.68Z"/><path class="cls-31" d="M63.39,137.16l-11.67-.31-.05-6.44,20.33-.09c1.34,11.35-8.09,21.05-18.99,20.86-11.35-.19-19.84-9.87-18.63-21.12s11.59-18.66,23.08-16.35c6.29,1.26,11.41,5.36,13.32,11.64-2.94.46-5.61-.02-8.72.13-2.93-3.9-7.68-5.51-12.22-4.03s-7.35,5.75-7.29,10.71c.07,5.37,3.29,9.82,8.29,11.03,4.78,1.16,10.33-.7,12.53-6.03Z"/><path class="cls-28" d="M176.75,159.82c2.79,0,4.19,1.94,4.43,3.88s-1.19,4.37-3.66,4.37l-54.38.03c-8.01,0-12.35-6.27-13.33-13.63,2.85-.48,5.26-.26,8.26-.34.32,3.71,2.49,5.73,6.11,5.73l52.56-.04Z"/><path class="cls-17" d="M109.5,118.77c-2.89.41-5.41-.16-8.25.68l-12-44.32-13.71-2.23c-2.19-.36-3.09-2.75-2.63-4.94.33-1.55,2.06-3.64,4.27-3.26l14.67,2.51c2.63.45,4.43,2.03,5.1,4.56l12.55,47Z"/><path class="cls-6" d="M186.92,129.6c3.03,6.02,1.86,13.83-3.64,18.35-5.78,4.77-14.59,4.32-19.96-.99-4.78-4.72-5.32-12.24-1.9-17.87,2.33,2.11,3.92,4.41,5.81,6.73-.67,4.13,2.07,7.48,5.86,7.94s7.35-2.58,7.72-6.7l6.11-7.47Z"/><path class="cls-1" d="M237.75,180.98l-200.24.03c-.78-.45-.6-.98-.45-1.25.26-.48.6-.56,1.51-.56h199.18c.86,0,1.07.04,1.3.33.21.26.1.89-.07,1.1-.15.2-.38.35-1.24.35Z"/><path class="cls-3" d="M173.46,140.09c-3.96-7.45-8.87-13.62-14.86-19.41,5.95,1.08,10.91,4.23,15.29,8.41,7.97-9.38,19.25-17.06,30.97-21.07-10.44,8.24-21.34,18.17-28.75,29.96-.83.77-.96,1.71-2.65,2.12Z"/><path class="cls-20" d="M200.41,150.13c-2.5.58-4.94.26-7.74.15l-.05-26.43c2.62-.29,4.92-.15,7.46-.05.34,1.18-.01,2.01.51,3.09,1.95-2.39,4.43-4.1,7.76-3.79.15,2.58.25,4.96-.03,7.66-3.6-.43-7.33.83-7.75,4.57-.54,4.82-.05,9.38-.17,14.81Z"/><path class="cls-31" d="M83.56,150.13c-2.6.56-4.99.3-7.79.17l-.02-26.58h7.38c.42,1.04-.15,1.97.48,3.14,1.94-2.37,4.45-3.96,7.89-3.75.25,2.58.3,5.11-.03,7.78-3.89-.71-7.81,1-7.83,4.95l-.08,14.28Z"/><path class="cls-8" d="M198.78,168.53c-2.69.72-5.53-.12-6.76-2.44-.37-.71-.3-1.48.14-1.62,1.99-.64,1.21,2.17,4.27,2.53,1.4.16,3.39-.28,3.55-2.05.31-3.55-6.42-1.83-7.77-5.27-.67-1.69-.27-3.56,1.37-4.67,2.4-1.64,5.92-1.03,7.48,1.23.36.52.32.99.24,1.34-.08.33-.75.47-1.15.43s-.9-2.32-3.77-2.19c-.98.04-2.63.76-2.47,2.34.34,3.3,7.68,1.5,7.93,6.06.1,1.87-.64,3.68-3.05,4.33Z"/><path class="cls-25" d="M50.84,195.12c.31-1.3-2.25.15-3.28-1-1.21-1.36,4.49-1.12,5.13-.9.44,3.32-2.06,5.8-5.02,5.93-3.2.14-5.63-2.16-5.69-5.63-.04-2.34,1.22-4.5,3.09-5.32,3.98-1.76,7.17,1.34,6.84,2.22-.76,2-2.13-1.87-5.1-1.28-1.63.32-2.81,1.58-3.13,3.39-.35,1.95.33,4.09,2.33,4.79,1.35.47,4.22.38,4.84-2.19Z"/><path class="cls-9" d="M153.89,199.2c-2.18.18-4.27-.65-4.75-2.69-.12-.52,1.08-.86,1.43-.32.68,1.07,1.35,1.5,2.43,1.57.86.06,2.43-.14,2.6-1.63.25-2.21-4.26-1.84-5.57-3.44-.83-1.01-1.04-2.53-.16-3.55,1.88-2.18,5.39-1.87,6.99.67.28.45-.18.81-.35.89-1.34.62-1.2-1.7-3.55-1.56-.79.05-2.15.65-1.93,1.8.48,2.44,6.25,1.11,6.17,4.99-.04,1.72-1.18,3.09-3.3,3.27Z"/><path class="cls-14" d="M206.43,192.68c-2.88.9.13,6.63-2.5,6.49-.86-1.16.75-7.6-2.27-6.64-2.79.89-.85,4.79-2.43,6.74-.61-.8-1.85-10.39,1.1-7.48,1.16-1.17,3.04-.35,4.46-.07s4.13-1.89,5.03.88c.63,1.93.8,4.87-.26,6.83-1.82-1.97-.4-3.95-.97-5.79-.32-1.03-1.33-1.22-2.17-.95Z"/><path class="cls-5" d="M207.17,166.36c.24.64,1.36.32,1.63.45s.82.68.38,1.23c-.8,1.01-3.74.54-3.88-.96l-.62-6.9c-.54-.16-1.45-.2-1.47-.77-.02-.61.23-.95.97-1.03,1.32-.14.49-1.85.96-2.51.24-.33.8-.37,1.29-.17.99.39-.3,2.58,1.29,2.63.61.02,1.07.03,1.27.32.3.43.1.78.04,1.06-.1.55-1.68.11-1.83.46-.65,1.56-.72,4.4-.04,6.19Z"/><path class="cls-24" d="M94.31,199.4c-2.05-1.91-.35-3.91-1.08-5.74-.38-.95-1.27-1.3-2.14-.99-2.84,1.02.01,5.94-2.29,6.65-1.2-.17-.68-23.19,1.07-7.49.86-.53,1.9-.69,2.74-.59,3.01.34,2.65,5.46,1.7,8.15Z"/><path class="cls-27" d="M228.64,198.94c-2.39-.62-1.01-4.17-1.62-6.15-1.46-.6-3.83-.31-4.52,1.1-.79,1.61.37,3.52-1.11,5.35-.86-2.6-.87-5.32-.42-7.93,1.12.43,1.79.52,2.83.05.92-.42,2.96.85,3.36-.97.1-.45-.04-.98.38-1.17.26-.12.63-.19.98.11.27.23.08.91.31,1.57.18.53.69.42.89.38.55-.12,1.21.83.62,1.03l-1.4.47c-.5.17-.26,3.59-.14,4.23.14.74,1.7.33,1.88.89.39,1.24-1.3,1.24-2.04,1.04Z"/><path class="cls-34" d="M165.06,199.24c-2.13-.24.65-6.95-2.56-6.72-3.6.25-.58,6.82-3.11,6.89-.85-1.57-.5-22.88,1.4-7.56.89-.54,1.81-.87,2.55-.7,3.05.68,2.87,4.7,1.71,8.1Z"/><path class="cls-42" d="M196.52,197.99c-1.37,1.92-5.04,1.43-5.52-.57,1.07-1.86,1.98,1.47,3.94.06,2.13-1.53-3.7-1.28-3.92-3.93-.12-1.52,1.33-2.26,2.2-2.35,1.3-.15,2.72.12,3.17,1.42.74,2.14-1.98-.89-3.37.07-.24.17-.44.45-.29.85.37.95,2.45.77,3.56,1.8.51.47.98,1.6.22,2.65Z"/><path class="cls-18" d="M228.26,160.06c-5.64,1.4-1.2,8.13-3.85,8.54-1.71.27-.93-8.58-.65-10.36,3.29,1.91,3.51-1.03,4.91.35.26.26.21,1.31-.41,1.46Z"/><path class="cls-45" d="M84.89,197.28c.74.39,1.42.23,1.98,1.02-.72,1.05-1.67.85-2.57.52-2.53-.94.38-5.5-2.19-6.36-.28-.1-.51-.48-.38-.83.15-.42.9-.33,1.22-.69s.18-1.02.22-1.37c.06-.5.95-.96,1.4-.23.31.5.06,1.13.22,1.54.21.53,1.3.12,1.67.62.83,1.12-1.06.9-1.37,1.24-.82,1.08-.36,3.16-.19,4.54Z"/><path class="cls-12" d="M58.05,192.63c-3.7.93-1.14,5.44-2.43,6.26-1.9,1.22-.96-5.72-.94-7.68,2.89,1.59,3.13-1.11,4.13.25.22.3-.04.98-.76,1.17Z"/><path class="cls-41" d="M137.85,199.19c-.77-4.04-.87-7.78.05-11.95.85,4.06.94,7.75-.05,11.95Z"/><path class="cls-11" d="M141.13,197.32c.51-.4,1.06-.07,1.31.25.27.35.19.73-.15,1.15-.22.26-.87.24-1.25-.02s-.56-.87.09-1.39Z"/><path class="cls-21" d="M232.53,197.44c.68-.51,1.26-.24,1.59.18.19.26.18.66-.19,1.17-.19.26-.9.2-1.3-.13-.25-.2-.38-.41-.1-1.23Z"/><path class="cls-26" d="M149.05,149.86c-4.77,2.31-10.15,1.51-13.5-2.22l-.55,2.8c-2.48-.05-4.68.17-7.44-.17l-.04-36.48c2.65-.32,5.02-.16,7.66-.1l.38,12.58c4.45-4.26,10.97-4.29,15.73-.62,3.96,3.05,5.8,7.91,5.24,13.01-.47,4.33-3.01,9.02-7.49,11.19Z"/><path class="cls-46" d="M148.62,136.66c.27,4.47-2.95,7.46-6.76,7.48-4.08.02-6.98-3.44-6.62-7.67.31-3.66,3.03-6.49,6.6-6.44s6.52,2.5,6.77,6.62Z"/><path class="cls-31" d="M238.97,150.3c-3,.22-5.03.29-7.49-.04-.56-.32.1-1.56-.54-2.62-4.85,5.4-13.97,4.42-18.31-1.85-3.36-4.87-3.58-11.25-.85-16.41,1.83-3.47,5.28-5.57,8.55-6.19,4.08-.78,7.63.31,10.57,2.91.45-.87-.02-2.31.64-2.39,2.55-.31,4.89-.22,7.43,0v26.59Z"/><path class="cls-15" d="M231.23,137.21c-.05,4.16-3.14,6.96-6.78,6.93s-6.48-2.78-6.69-6.65c-.22-4.06,2.47-7.26,6.18-7.46,3.93-.21,7.35,2.59,7.3,7.18Z"/><path class="cls-23" d="M122.05,150.09c-2.55.6-4.9.17-7.5.24-.35-1.17-.1-1.92-.42-2.65-4.5,4.59-11.5,4.76-16.48.29-6.13-5.51-6.17-15.7-.41-21.39,4.79-4.73,12.11-4.87,16.65-.33.66-.93.22-1.77.58-2.61l7.54.09.03,26.35Z"/><path class="cls-46" d="M114.34,136.8c.19,4.17-2.79,7.21-6.38,7.38-4.08.19-7.21-3.05-7.08-7.23s2.91-6.88,6.58-6.9,6.68,2.61,6.87,6.75Z"/><path class="cls-13" d="M232.6,164.39c-1.52.71.71,2.36,1.62,2.56,2.99.67,2.31-1.68,4.83-1.4.43.05.42.68.08,1.18-1.44,2.13-4.15,2.4-6.28,1.55-2.27-.91-3.34-3.34-2.93-5.98.47-3.03,3.08-4.62,6.06-4.03,2.41.48,4.31,2.91,3.66,5.79l-7.04.33Z"/><path class="cls-2" d="M237.81,162.26c-1.95.44-3.82.4-5.78.04-.04-1.56,1.28-2.24,2.45-2.45,1.41-.25,2.83.54,3.33,2.41Z"/><path class="cls-16" d="M211.96,166.89c-1.85-2.28-1.5-5.5.39-7.37,2.12-2.1,5.47-1.55,7.26.24,2.03,2.03,1.9,5.3.07,7.34s-5.58,2.43-7.71-.21Z"/><path class="cls-7" d="M215.95,166.95c-2.19.02-3.17-1.88-3.23-3.31-.07-1.61.99-3.63,2.94-3.76,2.06-.13,3.41,1.67,3.53,3.25.14,1.69-.88,3.8-3.25,3.82Z"/><path class="cls-38" d="M179.08,198.52c-.63,1.39.23,3.33-.69,3.95-.27.18-1.12-.05-1.12-.59l-.03-9.97c0-.52.5-.65.63-.6l1.16.4c.79.27,2.54-.87,3.66-.36s2.14,1.61,2.38,3.25c.25,1.75-.32,3.31-1.89,4.21-1.06.61-2.62.57-4.1-.28Z"/><path class="cls-29" d="M181.94,197.61c-1.92.61-3.1-.96-3.18-2.22-.09-1.4.78-2.97,2.5-2.91,1.23.04,1.93,1.16,2.14,1.93.29,1.07.11,2.7-1.46,3.2Z"/><path class="cls-32" d="M117.52,198.49c-.01,1.2-1.33,0-1.74.17-1.47.63-4.16.86-5.14-.91-.92-1.67-1.37-3.6.24-5.46.99-1.14,3.05-1.7,4.95-.52.65-1.43-.42-4.1,1.03-4.08.39,0,.78.4.77,1.07l-.11,9.72Z"/><path class="cls-46" d="M113.79,197.73c-1.62.06-2.25-1.4-2.36-2.31-.14-1.27.58-2.71,2.13-2.88s2.46,1.14,2.55,2.32c.09,1.27-.26,2.79-2.32,2.86Z"/><path class="cls-33" d="M76.38,194.47c.24,1.71-.37,3.19-1.43,3.98-1.24.94-2.91.99-4.46.03l-.64.37c-.3.18-1.24.14-1.24-.49l.05-10.14c0-.54.53-.62.74-.61,1.58.07.19,3.09,1.12,4.09,1.55-.84,2.55-.7,3.64-.31s2,1.49,2.21,3.09Z"/><path class="cls-15" d="M72.56,197.73c-1.75.03-2.31-1.45-2.4-2.36-.14-1.35.66-2.72,2.17-2.87s2.48,1.12,2.58,2.37c.1,1.18-.48,2.83-2.36,2.86Z"/><path class="cls-22" d="M98.55,195.99c-.43.74.58,1.52,1.12,1.69,2.52.75,2.61-1.58,3.81-.73.3.22.33.73-.19,1.22-1.22,1.16-2.96,1.25-4.34.72-1.64-.63-2.49-2.35-2.27-4.28.26-2.31,2.09-3.67,3.96-3.52,2.31.17,4,2.21,3.37,4.52-1.8.33-3.58-.39-5.46.38Z"/><path class="cls-36" d="M102.38,194.15c-.78.35-2.85.44-3.75-.01-.46-.9.83-1.61,1.5-1.7.85-.11,2.46.48,2.26,1.71Z"/><path class="cls-35" d="M61.53,194.65c1.05-.47,2.37-.11,2.96-.75.45-.49-.1-1.13-.49-1.27-1.85-.61-1.75.51-3.05.65-.25.03-.83-.32-.69-.62.6-1.35,2-1.6,3.29-1.55.97.03,2.53.6,2.69,1.99.22,2.04.35,3.83.02,6.06-1.41-1.6-5.03,1.81-6.37-1.29-.55-1.27.08-2.51,1.65-3.21Z"/><path class="cls-37" d="M61.44,197.11c-.26-1.2,2.52-2.23,3.18-1.34.58.79-.39,1.55-.86,1.84s-2.06.72-2.32-.49Z"/><path class="cls-30" d="M121.38,196.02c-.29.79.55,1.48,1.1,1.65,1.9.58,5.22-2.23,4.02-.03-.94,1.72-3.27,1.83-4.78,1.23-1.78-.71-2.58-2.78-2.18-4.83.43-2.26,2.52-3.35,4.8-2.73,1.5.41,3.23,2.23,2.58,4.33-1.93.19-3.8-.19-5.53.38Z"/><path class="cls-43" d="M125.37,194.18c-1.19.43-2.8.41-4.1.1-.24-.89.6-1.57,1.22-1.68.78-.15,2.41-.44,2.88,1.59Z"/><path class="cls-40" d="M131.76,199.11c-1.69.44-3.14-.46-3.37-1.65-.64-3.32,4.1-2.84,5.14-3.67-.57-1.57-2.32-1.57-3.41-.64-.55.47-1.02.46-1.37-.15-.18-.33,0-.79.61-1.15,1.46-.86,4.3-1.32,5.2.74s.34,4.35.35,6.5c-1.39-.79-1.94-.29-3.16.03Z"/><path class="cls-10" d="M133.16,195.77c.92.64-.34,1.69-.84,1.98-.56.33-2.1.62-2.33-.68-.18-1,2.21-1.97,3.17-1.3Z"/><path class="cls-47" d="M218.53,199.02c-2.18-1.04-3.77,1.33-5.88-.61-.7-.65-.99-1.78-.4-2.61,1.01-1.44,2.82-1.22,4.41-1.86.52-.21-.06-1.19-.42-1.27-1.99-.46-4.03,1.87-3.6.08.52-2.11,4.7-2.2,5.53-.18s.26,4.29.36,6.45Z"/><path class="cls-2" d="M213.74,196.75c0-1.01,2.41-1.67,2.97-1.1.71.72-.08,1.53-.57,1.84-.59.37-2.41.91-2.4-.74Z"/><path class="cls-19" d="M171.21,191.12c2.41-.14,4.01,1.77,4.19,3.31.32,2.79-1.6,4.52-3.45,4.68-2.54.22-4.19-1.39-4.54-3.25-.46-2.48,1.29-4.6,3.79-4.74Z"/><path class="cls-4" d="M171.48,197.73c-1.68.1-2.44-1.36-2.51-2.34-.09-1.27.68-2.76,2.25-2.88s2.45,1.16,2.56,2.36-.38,2.75-2.31,2.86Z"/></g></svg>